  0
SECTION
  2
HEADER
  0
ENDSEC
  0
SECTION
  2
TABLES
  0
TABLE
  2
LTYPE
 70
     1
 0
LTYPE
  2
CONTINUOUS
 70
    64
  3
Solid line
 72
    65
 73
     0
 40
0.0
  0
ENDTAB
  0
TABLE
  2
LAYER
 70
     2
 0
LAYER
  2
SONNET_Copper_GND
 70
     0
 62
     7
  6
CONTINUOUS
 0
LAYER
  2
SONNET_Copper_0
 70
     0
 62
     7
  6
CONTINUOUS
  0
ENDTAB
  0
ENDSEC
  0
SECTION
  2
BLOCKS
  0
ENDSEC
  0
SECTION
  2
ENTITIES
  0
POLYLINE
  8
SONNET_Copper_0
 66
     1
 10
0.0
 20
0.0
 30
0.0
 70
     1
  0
VERTEX
  8
SONNET_Copper_0
 10
5.010005
 20
3.810255
 30
0.0
  0
VERTEX
  8
SONNET_Copper_0
 10
16.050005
 20
3.810255
 30
0.0
  0
VERTEX
  8
SONNET_Copper_0
 10
16.050005
 20
3.610255
 30
0.0
  0
VERTEX
  8
SONNET_Copper_0
 10
5.010005
 20
3.610255
 30
0.0
  0
SEQEND
  0
POLYLINE
  8
SONNET_Copper_0
 66
     1
 10
0.0
 20
0.0
 30
0.0
 70
     1
  0
VERTEX
  8
SONNET_Copper_0
 10
20.049995
 20
3.809975
 30
0.0
  0
VERTEX
  8
SONNET_Copper_0
 10
31.089995
 20
3.809975
 30
0.0
  0
VERTEX
  8
SONNET_Copper_0
 10
31.089995
 20
3.609975
 30
0.0
  0
VERTEX
  8
SONNET_Copper_0
 10
20.049995
 20
3.609975
 30
0.0
  0
SEQEND
  0
POLYLINE
  8
SONNET_Copper_0
 66
     1
 10
0.0
 20
0.0
 30
0.0
 70
     1
  0
VERTEX
  8
SONNET_Copper_0
 10
5.010000
 20
2.110230
 30
0.0
  0
VERTEX
  8
SONNET_Copper_0
 10
5.010000
 20
5.310270
 30
0.0
  0
VERTEX
  8
SONNET_Copper_0
 10
0.000000
 20
5.310270
 30
0.0
  0
VERTEX
  8
SONNET_Copper_0
 10
0.000000
 20
2.110230
 30
0.0
  0
SEQEND
  0
POLYLINE
  8
SONNET_Copper_0
 66
     1
 10
0.0
 20
0.0
 30
0.0
 70
     1
  0
VERTEX
  8
SONNET_Copper_0
 10
31.090000
 20
5.309980
 30
0.0
  0
VERTEX
  8
SONNET_Copper_0
 10
31.090000
 20
2.109970
 30
0.0
  0
VERTEX
  8
SONNET_Copper_0
 10
36.100000
 20
2.109970
 30
0.0
  0
VERTEX
  8
SONNET_Copper_0
 10
36.100000
 20
5.309980
 30
0.0
  0
SEQEND
  0
POLYLINE
  8
SONNET_Copper_0
 66
     1
 10
0.0
 20
0.0
 30
0.0
 70
     1
  0
VERTEX
  8
SONNET_Copper_0
 10
16.050005
 20
9.390025
 30
0.0
  0
VERTEX
  8
SONNET_Copper_0
 10
20.050005
 20
9.390025
 30
0.0
  0
VERTEX
  8
SONNET_Copper_0
 10
20.050005
 20
3.610025
 30
0.0
  0
VERTEX
  8
SONNET_Copper_0
 10
16.050005
 20
3.610025
 30
0.0
  0
SEQEND
  0
POLYLINE
  8
SONNET_Copper_GND
 66
     1
 10
0.0
 20
0.0
 30
0.0
 70
     1
  0
VERTEX
  8
SONNET_Copper_GND
 10
0.000000
 20
12.000000
 30
0.0
  0
VERTEX
  8
SONNET_Copper_GND
 10
36.100000
 20
12.000000
 30
0.0
  0
VERTEX
  8
SONNET_Copper_GND
 10
36.100000
 20
0.000000
 30
0.0
  0
VERTEX
  8
SONNET_Copper_GND
 10
0.000000
 20
0.000000
 30
0.0
  0
SEQEND
  0
ENDSEC
  0
EOF
